<svg width="512" height="512" viewBox="0 0 512 512" fill="none" xmlns="http://www.w3.org/2000/svg">
  <circle cx="256" cy="256" r="248" fill="url(#paint0_radial)" stroke="url(#paint1_linear)" stroke-width="16"/>
  <path d="M256 128C238.327 128 224 142.327 224 160C224 177.673 238.327 192 256 192C273.673 192 288 177.673 288 160C288 142.327 273.673 128 256 128Z" fill="white"/>
  <path d="M256 224C238.327 224 224 238.327 224 256C224 273.673 238.327 288 256 288C273.673 288 288 273.673 288 256C288 238.327 273.673 224 256 224Z" fill="white"/>
  <path d="M256 320C238.327 320 224 334.327 224 352C224 369.673 238.327 384 256 384C273.673 384 288 369.673 288 352C288 334.327 273.673 320 256 320Z" fill="white"/>
  <defs>
    <radialGradient id="paint0_radial" cx="0" cy="0" r="1" gradientUnits="userSpaceOnUse" gradientTransform="translate(256 256) rotate(90) scale(256)">
      <stop stop-color="#0891B2"/>
      <stop offset="1" stop-color="#4F46E5"/>
    </radialGradient>
    <linearGradient id="paint1_linear" x1="256" y1="0" x2="256" y2="512" gradientUnits="userSpaceOnUse">
      <stop stop-color="#06B6D4"/>
      <stop offset="1" stop-color="#4F46E5"/>
    </linearGradient>
  </defs>
</svg>